<?xml version="1.0" encoding="UTF-8"?>
<svg xmlns="http://www.w3.org/2000/svg" xmlns:xlink="http://www.w3.org/1999/xlink" width="100px" height="px" viewBox="0 0 100 100" version="1.1">
<g id="surface1">
<path style=" stroke:none;fill-rule:nonzero;fill:rgb(0%,0%,0%);fill-opacity:1;" d="M 33.46875 1.367188 C 20.96875 5.394531 10.859375 12.773438 3.347656 23.496094 L 0 28.210938 L 0 80.394531 L 3.347656 85.109375 C 5.191406 87.707031 9.015625 92.074219 11.953125 94.808594 L 17.214844 99.726562 L 99.726562 99.726562 L 99.726562 0 L 68.511719 0.0664062 C 40.4375 0.136719 36.816406 0.273438 33.46875 1.367188 Z M 52.527344 15.4375 C 52.664062 15.574219 50.683594 15.710938 48.089844 15.644531 C 44.808594 15.644531 43.785156 15.4375 44.738281 15.027344 C 45.96875 14.480469 51.84375 14.824219 52.527344 15.4375 Z M 65.097656 16.871094 C 64.617188 17.007812 63.796875 17.007812 63.386719 16.871094 C 62.910156 16.667969 63.253906 16.53125 64.207031 16.53125 C 65.164062 16.53125 65.503906 16.667969 65.097656 16.871094 Z M 34.425781 18.511719 C 34.222656 18.851562 33.742188 18.988281 33.402344 18.785156 C 33.058594 18.578125 32.992188 18.851562 33.199219 19.398438 C 33.402344 20.011719 33.265625 20.492188 32.855469 20.492188 C 32.445312 20.492188 31.625 21.722656 31.011719 23.222656 C 30.394531 24.726562 29.714844 25.957031 29.441406 25.957031 C 29.234375 25.957031 28.960938 28.347656 28.824219 31.214844 C 28.6875 35.589844 28.347656 36.746094 26.980469 38.386719 C 26.023438 39.480469 25.273438 41.257812 25.273438 42.28125 C 25.273438 44.878906 27.730469 47.949219 29.644531 47.675781 C 31.011719 47.472656 31.078125 47.128906 31.078125 37.910156 C 31.078125 28.621094 31.832031 24.589844 33.605469 24.589844 C 33.949219 24.589844 34.085938 24.316406 33.878906 23.976562 C 33.605469 23.632812 34.972656 22.199219 36.886719 20.832031 C 40.710938 18.035156 44.261719 17.28125 52.457031 17.621094 C 57.855469 17.894531 55.328125 18.851562 49.386719 18.785156 C 42.554688 18.785156 39.550781 19.738281 36.679688 22.882812 C 32.785156 27.050781 32.582031 28.074219 32.71875 44.191406 C 32.785156 51.09375 33.199219 51.707031 36.269531 49.246094 C 37.910156 47.949219 37.980469 47.949219 39.550781 49.246094 C 41.394531 50.753906 44.878906 50.886719 46.722656 49.519531 C 47.816406 48.703125 48.222656 48.703125 49.933594 49.519531 C 52.597656 50.957031 55.535156 50.820312 57.582031 49.179688 L 59.355469 47.746094 L 60.792969 49.179688 C 62.773438 51.160156 64.207031 50.957031 64.277344 48.632812 C 64.753906 37.980469 64.617188 30.875 63.867188 28.550781 C 62.980469 25.480469 59.222656 20.492188 57.785156 20.492188 C 57.238281 20.492188 56.625 20.011719 56.421875 19.398438 C 55.601562 17.28125 61.679688 21.515625 63.867188 24.589844 L 65.914062 27.457031 L 65.710938 37.636719 C 65.503906 47.542969 65.574219 47.816406 66.941406 47.816406 C 69.058594 47.816406 71.722656 44.808594 71.722656 42.417969 C 71.722656 41.257812 70.96875 39.550781 70.011719 38.386719 C 68.648438 36.746094 68.308594 35.589844 68.308594 32.785156 C 68.308594 27.664062 67.074219 24.246094 63.933594 20.699219 C 61.746094 18.167969 61.476562 17.691406 62.707031 18.035156 C 63.523438 18.308594 65.4375 18.648438 66.941406 18.785156 C 69.535156 19.058594 74.453125 22.128906 74.453125 23.429688 C 74.453125 23.769531 74.726562 23.839844 75.066406 23.566406 C 75.480469 23.359375 76.09375 23.839844 76.503906 24.589844 C 76.910156 25.339844 77.664062 25.957031 78.210938 25.957031 C 78.6875 25.957031 79.300781 26.570312 79.574219 27.253906 C 79.78125 28.003906 80.738281 29.03125 81.625 29.644531 C 82.582031 30.261719 83.332031 31.214844 83.332031 31.761719 C 83.332031 32.308594 83.605469 32.785156 83.878906 32.785156 C 84.222656 32.785156 84.902344 34.085938 85.382812 35.65625 C 85.859375 37.292969 86.886719 40.574219 87.636719 43.035156 C 89.683594 49.589844 89.34375 64.550781 87.019531 67.964844 C 86.476562 68.714844 86.066406 69.945312 86.066406 70.699219 C 86.066406 71.449219 85.316406 73.222656 84.355469 74.589844 C 83.402344 75.957031 82.652344 77.253906 82.652344 77.390625 C 82.652344 77.527344 80.808594 79.574219 78.550781 82.035156 C 76.296875 84.425781 74.453125 86.613281 74.453125 86.886719 C 74.453125 87.226562 74.042969 87.433594 73.496094 87.433594 C 72.949219 87.433594 72.335938 87.910156 72.128906 88.523438 C 71.925781 89.070312 71.449219 89.34375 71.039062 89.140625 C 70.628906 88.933594 70.152344 89.207031 69.945312 89.753906 C 69.738281 90.371094 68.921875 90.847656 68.238281 90.847656 C 67.554688 90.847656 66.324219 91.460938 65.574219 92.214844 C 64.207031 93.578125 64.207031 93.578125 64.140625 92.007812 C 64.140625 90.574219 64.070312 90.574219 63.523438 91.871094 C 63.046875 92.964844 62.910156 93.035156 62.910156 92.074219 C 62.839844 91.460938 62.5 90.710938 62.160156 90.503906 C 61.679688 90.230469 61.542969 90.710938 61.816406 92.007812 L 62.160156 93.921875 L 61.40625 92.007812 C 60.65625 90.164062 60.449219 90.027344 56.964844 90.300781 L 53.277344 90.503906 L 53.277344 87.226562 C 53.277344 85.449219 53.347656 83.8125 53.414062 83.46875 C 53.550781 83.199219 55.261719 82.308594 57.308594 81.488281 C 61.746094 79.714844 65.503906 76.230469 67.621094 71.925781 C 69.605469 67.894531 70.355469 58.402344 68.785156 56.351562 C 67.894531 55.261719 67.488281 55.121094 66.460938 55.738281 C 65.503906 56.351562 65.164062 57.652344 64.890625 62.566406 C 64.683594 66.324219 64.140625 69.398438 63.386719 70.699219 C 58.675781 79.300781 45.699219 81.558594 37.566406 75.136719 C 33.675781 72.0625 32.105469 68.511719 32.105469 62.636719 C 32.105469 57.71875 31.351562 55.328125 29.714844 55.328125 C 26.777344 55.328125 26.570312 65.914062 29.371094 71.925781 C 31.285156 76.023438 35.996094 80.191406 40.574219 81.898438 L 44.058594 83.199219 L 44.261719 86.679688 L 44.464844 90.164062 L 40.644531 90.164062 C 37.773438 90.164062 36.953125 89.957031 37.292969 89.34375 C 37.566406 88.796875 37.5 88.660156 37.160156 89.003906 C 36.816406 89.34375 36.542969 89.824219 36.476562 90.027344 C 36.476562 90.300781 36.203125 91.050781 35.929688 91.667969 C 35.65625 92.28125 35.792969 93.511719 36.203125 94.398438 C 36.886719 95.832031 36.886719 95.832031 35.996094 94.738281 C 34.835938 93.375 33.878906 93.167969 34.355469 94.464844 C 34.5625 95.011719 34.289062 95.425781 33.8125 95.425781 C 33.128906 95.425781 33.058594 95.011719 33.675781 93.785156 C 34.222656 92.621094 34.152344 91.941406 33.539062 91.324219 C 32.855469 90.710938 32.785156 90.777344 33.199219 91.734375 C 34.222656 94.398438 23.769531 87.707031 19.808594 83.058594 C 18.851562 81.964844 17.144531 80.121094 15.984375 78.894531 C 14.824219 77.730469 13.660156 76.160156 13.386719 75.410156 C 13.183594 74.726562 12.292969 73.359375 11.40625 72.402344 C 9.085938 69.878906 7.855469 63.660156 7.855469 54.644531 C 7.855469 45.699219 9.355469 37.773438 11.542969 35.382812 C 12.363281 34.5625 12.980469 33.675781 12.980469 33.332031 C 12.980469 32.992188 14.824219 30.875 17.074219 28.621094 C 19.738281 25.957031 21.585938 24.589844 22.269531 24.863281 C 22.949219 25.136719 23.496094 24.660156 23.976562 23.496094 C 24.453125 22.0625 24.933594 21.789062 26.367188 22.0625 C 27.253906 22.199219 27.871094 22.199219 27.664062 21.996094 C 27.457031 21.789062 28.414062 20.902344 29.847656 20.011719 C 31.285156 19.125 32.171875 18.441406 31.761719 18.375 C 31.421875 18.375 31.691406 18.101562 32.445312 17.828125 C 34.015625 17.144531 35.042969 17.554688 34.425781 18.511719 Z M 53.621094 23.222656 C 53.824219 23.566406 53.757812 24.316406 53.550781 24.933594 C 53.210938 25.820312 52.253906 25.957031 48.566406 25.820312 C 44.535156 25.613281 44.058594 25.480469 43.851562 24.113281 C 43.648438 22.882812 43.988281 22.609375 45.902344 22.402344 C 48.976562 22.128906 53.210938 22.542969 53.621094 23.222656 Z M 38.59375 32.992188 C 38.386719 44.191406 38.183594 46.242188 37.292969 46.242188 C 36.269531 46.242188 35.246094 35.722656 35.929688 32.105469 C 36.613281 28.960938 38.59375 29.644531 38.59375 32.992188 Z M 58.332031 32.238281 C 59.015625 34.835938 58.8125 45.765625 58.058594 47.199219 C 57.652344 47.882812 56.898438 48.496094 56.351562 48.496094 C 55.535156 48.496094 55.328125 46.996094 55.328125 39.617188 C 55.328125 31.351562 55.394531 30.738281 56.625 30.738281 C 57.378906 30.738281 58.058594 31.351562 58.332031 32.238281 Z M 28.003906 41.597656 C 28.003906 42.007812 27.730469 42.488281 27.324219 42.691406 C 26.980469 42.894531 26.640625 42.621094 26.640625 42.074219 C 26.640625 41.460938 26.980469 40.984375 27.324219 40.984375 C 27.730469 40.984375 28.003906 41.257812 28.003906 41.597656 Z M 28.484375 59.5625 C 28.277344 60.042969 28.144531 59.699219 28.144531 58.742188 C 28.144531 57.785156 28.277344 57.445312 28.484375 57.855469 C 28.621094 58.332031 28.621094 59.152344 28.484375 59.5625 Z M 28.484375 59.5625 "/>
<path style=" stroke:none;fill-rule:nonzero;fill:rgb(0%,0%,0%);fill-opacity:1;" d="M 43.785156 73.566406 C 42.894531 73.769531 41.667969 74.316406 41.1875 74.863281 C 40.371094 75.683594 40.4375 75.886719 42.007812 76.503906 C 44.605469 77.527344 53.003906 77.324219 55.535156 76.230469 C 56.761719 75.683594 58.332031 74.792969 59.085938 74.113281 L 60.449219 72.949219 L 59.085938 73.429688 C 57.445312 74.042969 55.601562 74.113281 49.863281 73.566406 C 47.402344 73.359375 44.671875 73.359375 43.785156 73.566406 Z M 43.785156 73.566406 "/>
</g>
</svg>
